<?xml version="1.0" encoding="UTF-8"?> <svg xmlns="http://www.w3.org/2000/svg" width="150" height="38" viewBox="0 0 150 38" fill="none"><g id="Brand" clip-path="url(#clip0_7529_4048)"><path id="Vector" d="M15.2843 10.1085C13.2917 10.1085 11.4802 10.4717 10.031 11.0164C8.58178 11.5612 7.49488 12.2875 6.58912 13.377V10.4717H0.248856V37.1647H6.77028V23.7274C6.77028 21.1852 7.49488 19.3693 8.58178 18.0982C9.84983 16.8271 11.6614 16.1008 13.8352 16.1008C15.8278 16.1008 17.277 16.6456 18.1827 17.7351C19.2696 18.8246 19.8131 20.4588 19.8131 22.8194V37.3462H26.3345V22.0931C26.3345 18.2798 25.2476 15.3745 23.255 13.377C21.2623 11.198 18.5451 10.1085 15.2843 10.1085Z" fill="#8439A6"></path><path id="Vector_2" d="M39.0147 10.4717H32.4931V37.1647H39.0147V10.4717Z" fill="#8439A6"></path><path id="Vector_3" d="M60.5721 10.1085C58.5794 10.1085 56.768 10.4717 55.3188 11.0164C53.8695 11.5612 52.7825 12.2875 51.8769 13.377V10.4717H45.5365V37.1647H52.0579V23.7274C52.0579 21.1852 52.7825 19.3693 53.8695 18.0982C55.1376 16.8271 56.949 16.1008 59.1228 16.1008C61.1155 16.1008 62.5647 16.6456 63.4706 17.7351C64.5574 18.8246 65.1008 20.4588 65.1008 22.8194V37.3462H71.6223V22.0931C71.6223 18.2798 70.5353 15.3745 68.5426 13.377C66.55 11.198 63.8327 10.1085 60.5721 10.1085Z" fill="#8439A6"></path><path id="Vector_4" d="M91.7964 31.0084C90.8906 31.7348 89.9183 32.0802 88.6503 32.0802C87.5635 32.0802 86.6576 31.717 86.1142 31.1723C85.5708 30.6277 85.2084 29.5381 85.2084 28.4485V15.9193H92.2733V10.6533H85.2084V4.66101H78.6871V10.6533H74.3393V15.9193H78.6871V28.267C78.6871 31.1723 79.4117 33.533 81.0421 34.9855C82.6723 36.4383 84.8462 37.3462 87.9256 37.3462C89.0127 37.3462 90.1272 37.2617 91.1865 36.983C92.2733 36.6198 93.2599 36.1909 93.9317 35.7028C94.6036 35.2145 95.2388 34.5947 95.2388 34.5947L92.2733 30.6277L91.7964 31.0084Z" fill="#8439A6"></path><path id="Vector_5" d="M120.17 16.6456C119.083 14.6481 117.453 13.0139 115.46 11.7428C113.468 10.6533 111.113 10.1085 108.577 10.1085C106.041 10.1085 103.686 10.6533 101.512 11.9243C99.5193 13.0139 97.7079 14.6481 96.6208 16.8271C95.534 18.8246 94.8094 21.1852 94.8094 23.9089C94.8094 26.451 95.3528 28.8117 96.6208 30.9906C97.8888 32.9881 99.5193 34.6223 101.693 35.8934C103.867 36.983 106.403 37.7094 109.301 37.7094C111.656 37.7094 113.649 37.3462 115.46 36.6198C117.272 35.8934 118.259 35.0536 118.877 34.4769C119.496 33.9005 119.841 33.43 119.841 33.43L116.547 28.9934L116.366 29.1749C114.555 30.9906 112.2 31.8987 109.482 31.8987C107.309 31.8987 105.497 31.3538 104.048 30.2645C102.599 29.1749 101.693 27.9038 101.331 26.0881H121.982V25.9063C121.982 25.18 121.982 24.4537 121.982 24.0905C121.982 21.1852 121.257 18.8246 120.17 16.6456ZM103.686 17.1903C104.954 16.1008 106.584 15.556 108.577 15.556C110.57 15.556 112.2 16.1008 113.468 17.1903C114.736 18.2798 115.46 19.7325 115.823 21.3668H101.512C101.693 19.7325 102.418 18.2798 103.686 17.1903Z" fill="#8439A6"></path><path id="Vector_6" d="M139.372 23.5458L149.336 10.4717H142.271L135.93 18.8246L129.59 10.4717H122.344L132.126 23.5458L121.801 37.1647H129.228L135.749 28.0853L142.452 37.1647H149.879L139.372 23.5458Z" fill="#8439A6"></path><path id="Vector_7" d="M39.0146 0.0126801H32.4931V6.53413H39.0146V0.0126801Z" fill="#FF6D00"></path></g><defs><clipPath id="clip0_7529_4048"><rect width="150" height="37.8173" fill="white"></rect></clipPath></defs></svg> 