<?xml version="1.0" encoding="UTF-8"?><svg id="Layer_1" xmlns="http://www.w3.org/2000/svg" xmlns:xlink="http://www.w3.org/1999/xlink" viewBox="0 0 301.49 58.81"><defs><style>.cls-1{fill:url(#linear-gradient-2);}.cls-2{fill:#fff;}.cls-3{mask:url(#mask);}.cls-4{fill:url(#linear-gradient-4);}.cls-5{fill:url(#linear-gradient-3);}.cls-6{fill:url(#linear-gradient-5);isolation:isolate;opacity:.7;}.cls-7{fill:url(#linear-gradient);}</style><mask id="mask" x="0" y="0" width="56.14" height="58.81" maskUnits="userSpaceOnUse"><g id="mask0_84_430"><path class="cls-2" d="M21.12,0h25.38c7.1,0,11.74,7.41,8.69,13.78l.47-.94-8.82,17.64c-.03.05-.05.1-.08.16l-1.38,2.75,1.38-2.76c-1.63,3.26-4.97,5.32-8.62,5.32h-15.24l-10.79,21.58c-.85,1.69-3.26,1.69-4.11,0L.48,42.46c-.69-1.37-.6-2.86.02-4.06l8.3-16.6c.78-1.56,2.37-2.54,4.11-2.54h31.8c-1.68-1.57-3.95-2.57-6.56-2.57H15.07c-1.71,0-2.82-1.8-2.05-3.32L19.07,1.27c.39-.78,1.18-1.27,2.05-1.27Z"/></g></mask><linearGradient id="linear-gradient" x1="10.33" y1="25.56" x2="16.75" y2="1.16" gradientTransform="translate(0 59.77) scale(1 -1)" gradientUnits="userSpaceOnUse"><stop offset="0" stop-color="#159455"/><stop offset="1" stop-color="#3fbda9"/></linearGradient><linearGradient id="linear-gradient-2" x1="13.97" y1="57.75" x2="51.22" y2="41.19" gradientTransform="translate(0 59.77) scale(1 -1)" gradientUnits="userSpaceOnUse"><stop offset="0" stop-color="#23a794"/><stop offset=".57" stop-color="#007a84"/><stop offset="1" stop-color="#005158"/></linearGradient><linearGradient id="linear-gradient-3" x1="40.2" y1="33.38" x2="33.46" y2="51.04" gradientTransform="translate(0 59.77) scale(1 -1)" gradientUnits="userSpaceOnUse"><stop offset="0" stop-color="#004a8b"/><stop offset=".41" stop-color="#105da8" stop-opacity=".5"/><stop offset="1" stop-color="#2170c6" stop-opacity="0"/></linearGradient><linearGradient id="linear-gradient-4" x1="11.06" y1="42.52" x2="44.77" y2="25.82" gradientTransform="translate(0 59.77) scale(1 -1)" gradientUnits="userSpaceOnUse"><stop offset="0" stop-color="#7fd9a2"/><stop offset=".2" stop-color="#47bf79"/><stop offset=".71" stop-color="#009280"/><stop offset="1" stop-color="#007a84"/></linearGradient><linearGradient id="linear-gradient-5" x1="10.81" y1="41.92" x2="18.51" y2="38.07" gradientTransform="translate(0 59.77) scale(1 -1)" gradientUnits="userSpaceOnUse"><stop offset="0" stop-color="#a8e47c" stop-opacity=".86"/><stop offset=".37" stop-color="#87d152" stop-opacity=".2"/><stop offset="1" stop-color="#58be5a" stop-opacity="0"/></linearGradient></defs><g class="cls-3"><path class="cls-7" d="M4.5,35.96h18.41l-10.79,21.58c-.85,1.69-3.26,1.69-4.11,0L.48,42.46c-1.49-2.99.68-6.51,4.02-6.51Z"/><path class="cls-1" d="M21.12,0h25.38c7.16,0,11.82,7.54,8.62,13.94l-8.27,16.54c-.03.05-.05.1-.08.16l-1.38,2.75,1.45-2.91c3.05-6.37-1.59-13.79-8.69-13.79H15.07c-1.71,0-2.82-1.8-2.05-3.32L19.07,1.27c.39-.78,1.18-1.27,2.05-1.27Z"/><path class="cls-5" d="M21.12,0h25.38c7.16,0,11.82,7.54,8.62,13.94l-8.29,16.58s-.04.08-.06.12l-.73,1.47.79-1.59c3.09-6.38-1.56-13.82-8.67-13.82H15.07c-1.71,0-2.82-1.8-2.05-3.32L19.07,1.27c.39-.78,1.18-1.27,2.05-1.27Z"/><path d="M38.15,36.22H4.56c-1.74,0-3.33.98-4.11,2.54l8.35-16.69c.78-1.56,2.37-2.54,4.11-2.54h33.59c3.64,0,6.98-2.06,8.61-5.31l.56-1.11-8.9,17.79c-1.63,3.26-4.97,5.32-8.62,5.32Z"/><path d="M38.15,37.24H4.56c-1.74,0-3.33.98-4.11,2.54l8.35-16.69c.78-1.56,2.37-2.54,4.11-2.54h33.59c3.64,0,6.98-2.06,8.61-5.31l.56-1.11-8.9,17.79c-1.63,3.26-4.97,5.32-8.62,5.32Z"/><path class="cls-4" d="M38.15,35.96H4.56c-1.74,0-3.33.98-4.11,2.54l8.35-16.69c.78-1.56,2.37-2.54,4.11-2.54h33.59c3.64,0,6.98-2.06,8.61-5.31l.56-1.11-8.9,17.79c-1.63,3.26-4.97,5.32-8.62,5.32Z"/><path class="cls-6" d="M38.13,35.96H4.59c-1.74,0-3.33.98-4.11,2.54l8.35-16.7c.78-1.56,2.37-2.54,4.11-2.54h33.74c3.53,0,6.76-1.99,8.35-5.14l-8.28,16.52c-1.63,3.26-4.97,5.32-8.61,5.32Z"/></g><path d="M76.28,31.08v7.87h-3.83v-22.62h7.08c2.63,0,4.63.61,6.01,1.82s2.07,2.98,2.07,5.31-.78,4.1-2.33,5.51-3.64,2.11-6.27,2.11h-2.73ZM76.28,19.47v8.49h2.4c1.61,0,2.82-.37,3.64-1.1s1.23-1.81,1.23-3.22-.39-2.44-1.18-3.13-1.96-1.03-3.53-1.03h-2.57Z"/><path d="M97.49,39.35c-2.6,0-4.65-.78-6.17-2.33s-2.27-3.63-2.27-6.22c.01-2.76.8-4.91,2.36-6.46s3.69-2.33,6.38-2.33c2.59-.01,4.61.75,6.08,2.29s2.2,3.61,2.2,6.23-.77,4.83-2.32,6.43-3.63,2.39-6.26,2.39ZM97.67,36.36c1.49,0,2.63-.49,3.41-1.47s1.17-2.41,1.17-4.27-.39-3.23-1.18-4.19-1.92-1.44-3.42-1.44-2.65.51-3.49,1.52-1.27,2.42-1.27,4.22.42,3.19,1.25,4.16,2.01,1.47,3.53,1.47Z"/><path d="M132.37,22.4l-4.87,16.55h-3.91l-2.98-10.88c-.08-.32-.14-.61-.18-.88s-.07-.57-.09-.9h-.06c-.03.34-.07.64-.13.91s-.13.54-.22.83l-3.2,10.93h-3.83l-4.86-16.55h3.86l2.92,11.7c.05.22.1.47.13.74s.07.58.09.91h.13c.02-.3.06-.6.11-.88s.12-.56.19-.82l3.38-11.66h3.5l3.03,11.72c.04.17.08.39.13.67s.08.61.13,1h.11c.02-.26.05-.53.09-.81s.1-.57.17-.86l2.81-11.72h3.57Z"/><path d="M149.41,31.65h-11.29c.07,1.57.53,2.76,1.36,3.58s2.02,1.23,3.54,1.23c.6,0,1.3-.12,2.09-.37s1.59-.65,2.37-1.21l1.67,2.35c-1.04.74-2.09,1.27-3.15,1.61s-2.23.5-3.5.5c-2.57,0-4.56-.74-5.99-2.22s-2.15-3.56-2.16-6.23c0-2.65.74-4.79,2.22-6.43s3.38-2.45,5.69-2.45,3.98.7,5.25,2.09,1.9,3.37,1.9,5.92v1.62ZM145.81,29.06c-.01-1.42-.33-2.49-.95-3.22s-1.5-1.09-2.63-1.09c-1.07,0-1.98.39-2.73,1.17s-1.2,1.82-1.37,3.14h7.68Z"/><path d="M162.41,25.56c-.21-.05-.42-.09-.62-.13s-.43-.05-.69-.05c-1.31,0-2.33.5-3.05,1.49s-1.08,2.3-1.08,3.9v8.17h-3.77v-16.55h3.77v3.19h.06c.38-1.15.95-2.01,1.7-2.59s1.65-.88,2.68-.88c.28,0,.55.02.79.05s.47.08.69.14l-.49,3.25Z"/><path d="M178.84,31.08v7.87h-3.83v-22.62h7.08c2.63,0,4.63.61,6.01,1.82s2.07,2.98,2.07,5.31-.78,4.1-2.33,5.51-3.64,2.11-6.27,2.11h-2.73ZM178.84,19.47v8.49h2.4c1.61,0,2.82-.37,3.64-1.1s1.23-1.81,1.23-3.22-.39-2.44-1.18-3.13-1.96-1.03-3.53-1.03h-2.57Z"/><path d="M193.86,38.95V15.04h3.75v23.91h-3.75Z"/><path d="M215.35,38.95h-3.63v-2.51h-.06c-.56.96-1.25,1.68-2.09,2.17s-1.8.73-2.88.73c-1.52,0-2.78-.44-3.75-1.33s-1.47-2.1-1.47-3.62.49-2.71,1.47-3.64,2.45-1.55,4.41-1.83l4.4-.58v-.35c0-1.11-.29-1.93-.88-2.45s-1.38-.77-2.37-.77c-.79,0-1.59.14-2.41.43s-1.61.72-2.37,1.3l-1.61-2.24c1-.77,2.04-1.34,3.13-1.7s2.27-.55,3.56-.55c2.2,0,3.84.55,4.92,1.64s1.62,2.74,1.62,4.94v10.36ZM211.75,32.2v-1.39l-3.57.47c-1.05.15-1.84.43-2.36.85-.52.42-.78,1.04-.78,1.84s.24,1.41.73,1.86,1.13.68,1.92.68c1.21,0,2.19-.4,2.93-1.21s1.12-1.85,1.12-3.11Z"/><path d="M229.2,38.71c-.47.21-.97.36-1.5.46s-1.09.14-1.69.14c-1.55,0-2.73-.41-3.56-1.22s-1.24-2.03-1.24-3.64v-9.13h-2.76v-2.92h2.76v-3.75l3.75-1.14v4.89h3.96v2.92h-3.96v8.8c0,.82.15,1.41.45,1.77s.76.54,1.38.54c.3,0,.59-.03.87-.1s.52-.16.74-.28l.79,2.67Z"/><path d="M241.34,17.89c-.3-.13-.58-.21-.82-.26s-.5-.07-.79-.07c-.8,0-1.4.22-1.8.67s-.6,1.09-.6,1.92v2.26h3.8v2.92h-3.8v13.63h-3.74v-13.63h-2.78v-2.92h2.78v-2.46c0-1.65.54-2.96,1.61-3.93s2.5-1.45,4.27-1.45c.55,0,1.03.04,1.44.11s.84.18,1.29.33l-.87,2.89Z"/><path d="M251.5,39.35c-2.6,0-4.65-.78-6.17-2.33s-2.27-3.63-2.27-6.22c.01-2.76.8-4.91,2.36-6.46s3.69-2.33,6.38-2.33c2.59-.01,4.61.75,6.08,2.29s2.2,3.61,2.2,6.23-.77,4.83-2.32,6.43-3.63,2.39-6.26,2.39ZM251.67,36.36c1.49,0,2.63-.49,3.41-1.47s1.17-2.41,1.17-4.27-.39-3.23-1.18-4.19-1.92-1.44-3.42-1.44-2.65.51-3.49,1.52-1.27,2.42-1.27,4.22.42,3.19,1.25,4.16,2.01,1.47,3.53,1.47Z"/><path d="M273.3,25.56c-.21-.05-.42-.09-.62-.13s-.43-.05-.69-.05c-1.31,0-2.33.5-3.05,1.49s-1.08,2.3-1.08,3.9v8.17h-3.77v-16.55h3.77v3.19h.06c.38-1.15.95-2.01,1.7-2.59s1.65-.88,2.68-.88c.28,0,.55.02.79.05s.47.08.69.14l-.49,3.25Z"/><path d="M301.49,38.95h-3.75v-9.48c0-1.56-.26-2.69-.77-3.41s-1.33-1.07-2.47-1.07c-1,0-1.84.44-2.51,1.33s-1.01,1.98-1.01,3.27v9.35h-3.75v-9.7c0-1.42-.27-2.48-.81-3.19s-1.35-1.06-2.42-1.06-1.89.42-2.53,1.27-.97,1.97-.97,3.37v9.32h-3.77v-16.55h3.77v2.6h.06c.56-.95,1.29-1.68,2.18-2.21s1.92-.79,3.05-.79,2.12.29,2.94.86,1.42,1.38,1.79,2.41c.62-1.09,1.39-1.91,2.31-2.45s1.99-.81,3.21-.81c1.81,0,3.17.56,4.08,1.67s1.36,2.79,1.36,5.02v10.25Z"/></svg>